<svg width="32" height="33" viewBox="0 0 32 33" fill="none" xmlns="http://www.w3.org/2000/svg">
    <g clip-path="url(#clip0_38_14985)">
        <path fill-rule="evenodd" clip-rule="evenodd" d="M15.9984 2.9752L11.7104 0.5L9.3328 4.62H4.3456V9.7032L0 12.212L2.4752 16.5L0 20.7872L4.3456 23.2968V28.0208H9.1256L11.7104 32.5L15.9984 30.0248L20.2864 32.5L22.872 28.02H27.8016V23.212L32 20.7872L29.524 16.5L32 12.2128L27.8016 9.7888V4.6208H22.6664L20.2864 0.5L15.9984 2.9752ZM21.9304 11.9552L23.7336 13.7848L14.5896 22.9848L9.1216 17.4408L10.9168 15.6344L14.5864 19.2992L21.9304 11.9552Z" fill="#0095F6"/>
    </g>
    <defs>
        <clipPath id="clip0_38_14985">
            <rect width="32" height="32" fill="white" transform="translate(0 0.5)"/>
        </clipPath>
    </defs>
</svg>
